inDegrees=no
num_controls=7
num_derivatives=13
num_iterations=267
num_multipliers=7
num_parameters=0
num_slacks=7
num_states=26
objective=6.599533
objective_accelerations=0.428399
objective_balance=0.048187
objective_effort=0.439558
objective_height=5.568422
objective_ligament=0.114967
solver_duration=2268.985778
status=Solve_Succeeded
success=true
DataType=double
version=3
OpenSimVersion=4.4-2022-07-23-0e9fedc
endheader
time	/jointset/ground_pelvis/pelvis_tilt/value	/jointset/ground_pelvis/pelvis_tx/value	/jointset/ground_pelvis/pelvis_ty/value	/jointset/hip_r/hip_flexion_r/value	/jointset/hip_r/hip_adduction_r/value	/jointset/hip_r/hip_rotation_r/value	/jointset/back/lumbar_extension/value	/jointset/patellofemoral_r/patellar_flexion_r/value	/jointset/knee_r/knee_flexion_r/value	/jointset/knee_r/knee_adduction_r/value	/jointset/knee_r/knee_rotation_r/value	/jointset/ankle_r/ankle_angle_r/value	/jointset/subtalar_r/subtalar_angle_r/value	/jointset/ground_pelvis/pelvis_tilt/speed	/jointset/ground_pelvis/pelvis_tx/speed	/jointset/ground_pelvis/pelvis_ty/speed	/jointset/hip_r/hip_flexion_r/speed	/jointset/hip_r/hip_adduction_r/speed	/jointset/hip_r/hip_rotation_r/speed	/jointset/back/lumbar_extension/speed	/jointset/patellofemoral_r/patellar_flexion_r/speed	/jointset/knee_r/knee_flexion_r/speed	/jointset/knee_r/knee_adduction_r/speed	/jointset/knee_r/knee_rotation_r/speed	/jointset/ankle_r/ankle_angle_r/speed	/jointset/subtalar_r/subtalar_angle_r/speed	/forceset/tau_hip_flexion_r	/forceset/tau_hip_adduction_r	/forceset/tau_hip_rotation_r	/forceset/tau_knee_flexion_r	/forceset/tau_ankle_angle_r	/forceset/tau_subtalar_angle_r	/forceset/tau_lumbar_extension	lambda_cid13_p0	lambda_cid14_p0	lambda_cid14_p1	lambda_cid14_p2	lambda_cid14_p3	lambda_cid14_p4	lambda_cid14_p5	/jointset/ground_pelvis/pelvis_tilt/accel	/jointset/ground_pelvis/pelvis_tx/accel	/jointset/ground_pelvis/pelvis_ty/accel	/jointset/hip_r/hip_flexion_r/accel	/jointset/hip_r/hip_adduction_r/accel	/jointset/hip_r/hip_rotation_r/accel	/jointset/back/lumbar_extension/accel	/jointset/patellofemoral_r/patellar_flexion_r/accel	/jointset/knee_r/knee_flexion_r/accel	/jointset/knee_r/knee_adduction_r/accel	/jointset/knee_r/knee_rotation_r/accel	/jointset/ankle_r/ankle_angle_r/accel	/jointset/subtalar_r/subtalar_angle_r/accel	gamma_cid13_p0	gamma_cid14_p0	gamma_cid14_p1	gamma_cid14_p2	gamma_cid14_p3	gamma_cid14_p4	gamma_cid14_p5
1	-0.2130473936691442	0.03297279367923931	0.7426300378318589	1.146799104089112	-0.2365848849710141	-0.06731679186887028	-0.4363276659568304	1.16922235251288	1.169222352512856	-0.02810937721414557	0.1745327355060851	0.429225928771042	0.1005269646896117	0.001673958198177916	0.003871084620580648	0.01281103238640739	-0.03755089648542301	0.001591134978510998	-0.009568713919406606	0.0009137946154259557	-0.04489910330827138	-0.04489910330827148	0.0009652621411946101	-1.854780479026913e-06	-0.01036839253006039	-0.001047249479104023	-0.2192054518965562	0.01920749015581844	0.01303940116042457	-0.4324585073848899	-0.05081744649435198	0.01251716866372124	0.2564370047746067	-2.663289818539179	-63.06355091011637	-4.500419615467737	-0.08511152292947266	21.67170681321	-771.4240302964032	63.03240592343643	1.094464414733258	-0.01431429245720212	1.256062637628821	-4.01723120964401	0.1343421848411249	-0.6898490605149681	0.09635338355137951	-4.309352858548515	-4.309352858548453	0.3518014144040835	0.003502759904819795	-1.561493966839218	-0.3529550433849387	7.135415675731277e-10	-2.477631105806555e-09	3.217258790343071e-09	7.00214693673573e-09	6.360987697593216e-09	-3.372296536442513e-09	1.205846187438866e-09
1.01	-0.2129770167738933	0.03301100911222277	0.7428207949075832	1.146223749065812	-0.2365623207965355	-0.06744637793839753	-0.4363113327016712	1.168558158676868	1.16855815867683	-0.0280815696763474	0.1745327123902273	0.4290444879185724	0.1004988450711921	0.01235434392877948	0.003795959964015794	0.02533758800607235	-0.0775053523433461	0.00291877990107017	-0.01634418380826435	0.002520620892884693	-0.08794345273090572	-0.08794345273090697	0.004605891786764268	-2.553361767506613e-06	-0.02589093154406642	-0.004570069707477378	-0.2199807198286081	0.01925181799310711	0.0130441168539748	-0.4320618463996984	-0.05094130102741106	0.0125434039399608	0.2573078118471132	-2.688136476042139	-63.11219537127166	-4.488888874899589	-0.09683487983690239	21.39317925482944	-771.8568712945403	63.02033226724552	1.047764863976386	-0.000516426647420119	1.250531671146408	-3.982338833395679	0.1315403225300195	-0.6707479560943712	0.2180119211825819	-4.302544569208487	-4.302544569208695	0.371641709448537	-0.0018210748178776	-1.54330776907582	-0.3509519596242094	1.292044411705436e-09	-2.462055268407331e-09	8.138797533690374e-09	1.258994708423367e-08	7.129532413437943e-09	-5.677360112852363e-09	5.454637646292093e-09
1.02	-0.2128012481789845	0.0330491923237625	0.7431367334689066	1.145249292272029	-0.2365265672375187	-0.0676435891074198	-0.4362738982494619	1.167463407629612	1.167463407629562	-0.02801706624814327	0.1745326893070323	0.428708686895884	0.1004356959610755	0.02275229812948858	0.003864640331832878	0.03784732950622598	-0.1173712505824336	0.004229011886304673	-0.02309373381806202	0.005134034023920775	-0.1310105455570443	-0.1310105455570469	0.008304440224933138	-1.848249944770946e-06	-0.04124042657385345	-0.00805314781827599	-0.2207559877606551	0.0192961458303811	0.01304883254764666	-0.4316651854145008	-0.05106515556047563	0.01256963921617078	0.258178618919624	-2.729374222759528	-63.17122723708013	-4.475484263540364	-0.1130747911960239	21.13881227558169	-772.4501432553034	63.02822213589758	1.037978108754782	0.01444671241917293	1.252699813726556	-3.999519685876888	0.1308595973762004	-0.6846650847029382	0.2976707542668425	-4.313901539249368	-4.313901539249342	0.3633851729239216	0.00378349852703779	-1.526885169995437	-0.3450066198699793	1.969008880138529e-09	-1.78103866277937e-09	1.351162379941458e-08	1.831382361064183e-08	6.577384301603103e-09	-8.186244712763506e-09	1.076565815507541e-08
1.03	-0.2125228037060854	0.03308876059906825	0.7435776605823884	1.143876566083875	-0.2364778056850076	-0.06790812043720543	-0.4362055300253754	1.165937870143787	1.165937870143755	-0.02791522651281525	0.174532678857582	0.4282201924644701	0.1003378865617824	0.0328983651937261	0.004071053272273965	0.05033254889024985	-0.1571623733462093	0.005519867939237189	-0.02980335549248955	0.008687095057617616	-0.1741006901895394	-0.1741006901895426	0.01207912438411547	-7.740241586293767e-07	-0.05643585491209356	-0.01150457167544557	-0.2212670513187116	0.01930162150798183	0.01306256295488302	-0.4310543309385705	-0.05107461225358657	0.01257256024191812	0.2588166956602367	-2.787360825267426	-63.17572873988409	-4.46141892301907	-0.1308344665636343	20.89633742643066	-772.6928127577597	63.01055277887531	0.9971873980175456	0.02704556518524576	1.245599201095474	-3.967165704534728	0.127688860143956	-0.662733019897239	0.4062464175895763	-4.307132245995271	-4.307132245995378	0.3868546858414159	-0.0018047634568138	-1.512482058821866	-0.3445802599716481	2.646978059023671e-09	-1.093231845230703e-09	1.888905503985691e-08	2.403908867152866e-08	6.011759732342954e-09	-1.069720911903691e-08	1.608751773579679e-08
1.04	-0.2121440452839906	0.03313105439984429	0.7441432731297815	1.142106277241498	-0.2364162375217903	-0.06823947244595356	-0.4360972066630179	1.163981318947489	1.163981318947479	-0.02777517100622458	0.1745326643207897	0.4275804216710572	0.1002056889256503	0.04281508796833033	0.004409745425893003	0.06278441628852247	-0.1968837814262553	0.006790334027864069	-0.03645786961031288	0.01312506167805236	-0.2172132876518625	-0.2172132876518663	0.01594759448033313	-2.665720821803691e-06	-0.07149569897367622	-0.01493079518586153	-0.221778114876799	0.0193070971855664	0.01307629336225265	-0.4304434764626371	-0.05108406894670038	0.01257548126763419	0.2594547724008203	-2.862597615671098	-63.19055018591686	-4.445388548518794	-0.1532158722434671	20.67556538330519	-773.0966125377795	63.01320472954832	0.9921092508281452	0.04090255505474934	1.246029416576305	-3.985576749130934	0.1267816045150769	-0.6736435733821037	0.4746518716144374	-4.318392105214949	-4.318392105214947	0.3821423603309765	0.003190314037168588	-1.499768314663964	-0.3399665505192538	3.32820880683853e-09	-3.954359271181855e-10	2.335009361343665e-08	3.027794556281799e-08	5.595560789653485e-09	-1.272833680936441e-08	2.03209196702756e-08
1.05	-0.211667273987611	0.03317739645856647	0.7448331917608627	1.139939194531898	-0.2363420836843443	-0.06863706081979337	-0.4359401284263785	1.161593573084463	1.161593573084437	-0.02759590805937569	0.1745326354287151	0.4267907037576761	0.1000393243867253	0.05249803554979022	0.004880831058494655	0.07518889018095823	-0.2365116228776283	0.008035974536591488	-0.04304663126583869	0.01843628839102156	-0.2603350215989163	-0.2603350215989156	0.01992539937541438	-3.41893568614199e-06	-0.08642768785765419	-0.0183398181350816	-0.2220038341949814	0.01923310572551919	0.01310115838686399	-0.4296760089385978	-0.05084937396543354	0.01255310313028446	0.2598590492849083	-2.955712507461091	-63.10708153598824	-4.420755177052339	-0.1796880382819341	20.40766740909108	-773.1420256406635	63.00838298696055	0.9502185713408825	0.05353731096454377	1.236090444297904	-3.94821611610542	0.1227936010157163	-0.6495143399230524	0.5812134823774532	-4.308935345056099	-4.308935345055421	0.4086630687643086	-0.001745409831125921	-1.486886126754237	-0.3410171396607712	4.009541478682442e-09	3.026721503869524e-10	2.778249491617694e-08	3.65328521988074e-08	5.184031397794349e-09	-1.474446960231861e-08	2.452030730330934e-08
